Local sports report from Columbus Ohio. Enjoy and please share.						

													

													

				                          

******************************************************************************************************

****************************************************************************************************** 

                                        								

													

										

WTW_Sports_720p_20110306_TTL.avi
Format                           : AVI
Format/Info                      : Audio Video Interleave
File size                        : 419 MiB
Duration                         : 13mn 0s
Overall bit rate                 : 4 501 Kbps
Movie name                       : WTW_Sports_720p_20110306_TTL.mpg
Director                         : created.with.SUPER(C).v2009.bld.35
Writing application              : SUPER(C)   

Video
ID                               : 0
Format                           : MPEG-4 Visual
Format profile                   : Simple@L3
Format settings, BVOP            : No
Format settings, QPel            : No
Format settings, GMC             : No warppoints
Format settings, Matrix          : Default (H.263)
Codec ID                         : XVID
Codec ID/Hint                    : XviD
Duration                         : 13mn 0s
Bit rate                         : 4 375 Kbps
Width                            : 1 280 pixels
Height                           : 720 pixels
Display aspect ratio             : 16:9
Frame rate                       : 29.970 fps
Resolution                       : 8 bits
Colorimetry                      : 4:2:0
Scan type                        : Progressive
Bits/(Pixel*Frame)               : 0.158
Stream size                      : 407 MiB (97%)
Writing library                  : XviD 1.1.2 (UTC 2006-11-01)

Audio
ID                               : 1
Format                           : MPEG Audio
Format version                   : Version 1
Format profile                   : Layer 3
Mode                             : Joint stereo
Format_Settings_ModeExtension    : MS Stereo
Codec ID                         : 55
Codec ID/Hint                    : MP3
Duration                         : 13mn 0s
Bit rate mode                    : Constant
Bit rate                         : 112 Kbps
Channel(s)                       : 2 channels
Sampling rate                    : 48.0 KHz
Stream size                      : 10.4 MiB (2%)
Alignment                        : Aligned on interleaves
Interleave, duration             : 24 ms (0.72 video frame)
Interleave, preload duration     : 24 ms

